HIERARCHY
ROOT Hips
{
	OFFSET 51.942699 6.659931 55.974800
	CHANNELS 6 Xposition Yposition Zposition Xrotation Yrotation Zrotation
	JOINT spine
	{
		OFFSET 0.000000 -0.393701 6.846371
		CHANNELS 3 Xrotation Yrotation Zrotation
		JOINT spine1
		{
			OFFSET 0.000000 -0.000002 9.496212
			CHANNELS 3 Xrotation Yrotation Zrotation
			JOINT spine2
			{
				OFFSET 0.000000 -0.000001 9.099091
				CHANNELS 3 Xrotation Yrotation Zrotation
				JOINT Neck
				{
					OFFSET 0.000000 -1.113784 23.361198
					CHANNELS 3 Xrotation Yrotation Zrotation
					JOINT Head
					{
						OFFSET 0.000000 -0.000001 7.058022
						CHANNELS 3 Xrotation Yrotation Zrotation
						End Site
						{
							OFFSET 0.000000 5.634187 17.084396
						}
					}
				}
				JOINT RightShoulder
				{
					OFFSET -3.831360 0.533490 9.826309
					CHANNELS 3 Xrotation Yrotation Zrotation
					JOINT RightArm
					{
						OFFSET 0.000000 -0.000002 12.888100
						CHANNELS 3 Xrotation Yrotation Zrotation
						JOINT RightArmRoll
						{
							OFFSET 0.000000 -0.000001 6.506172
							CHANNELS 3 Xrotation Yrotation Zrotation
							JOINT RightForeArm
							{
								OFFSET 0.000000 -0.000003 18.950104
								CHANNELS 3 Xrotation Yrotation Zrotation
								JOINT RightForeArmRoll
								{
									OFFSET 0.000000 -0.000001 7.300919
									CHANNELS 3 Xrotation Yrotation Zrotation
									JOINT RightHand
									{
										OFFSET 0.000000 -0.000002 14.651398
										CHANNELS 3 Xrotation Yrotation Zrotation
										End Site
										{
											OFFSET 0.000000 0.000000 0.100006
										}
									}
								}
							}
						}
					}
				}
				JOINT LeftShoulder
				{
					OFFSET 3.831360 0.533490 9.826309
					CHANNELS 3 Xrotation Yrotation Zrotation
					JOINT LeftArm
					{
						OFFSET 0.000000 -0.000002 12.888100
						CHANNELS 3 Xrotation Yrotation Zrotation
						JOINT LeftArmRoll
						{
							OFFSET 0.000000 -0.000001 6.506172
							CHANNELS 3 Xrotation Yrotation Zrotation
							JOINT LeftForeArm
							{
								OFFSET 0.000000 -0.000003 18.950104
								CHANNELS 3 Xrotation Yrotation Zrotation
								JOINT LeftForeArmRoll
								{
									OFFSET 0.000000 -0.000001 7.300919
									CHANNELS 3 Xrotation Yrotation Zrotation
									JOINT LeftHand
									{
										OFFSET 0.000000 -0.000002 14.651398
										CHANNELS 3 Xrotation Yrotation Zrotation
										End Site
										{
											OFFSET 0.000000 0.000000 0.100006
										}
									}
								}
							}
						}
					}
				}
			}
		}
	}
	JOINT RightUpLeg
	{
		OFFSET -6.068371 0.933477 -1.112782
		CHANNELS 3 Xrotation Yrotation Zrotation
		JOINT RightUpLegRoll
		{
			OFFSET 0.000000 -0.000003 17.179600
			CHANNELS 3 Xrotation Yrotation Zrotation
			JOINT RightLeg
			{
				OFFSET 0.000000 0.000004 -21.274300
				CHANNELS 3 Xrotation Yrotation Zrotation
				JOINT RightLegRoll
				{
					OFFSET 0.000000 -0.000004 21.343903
					CHANNELS 3 Xrotation Yrotation Zrotation
					JOINT RightFoot
					{
						OFFSET 0.000000 -0.000003 17.765198
						CHANNELS 3 Xrotation Yrotation Zrotation
						JOINT RightToeBase
						{
							OFFSET 0.000000 -0.000002 14.850800
							CHANNELS 3 Xrotation Yrotation Zrotation
							End Site
							{
								OFFSET 0.006294 0.829003 7.192139
							}
						}
					}
				}
			}
		}
	}
	JOINT LeftUpLeg
	{
		OFFSET 6.068371 0.933477 -1.112782
		CHANNELS 3 Xrotation Yrotation Zrotation
		JOINT LeftUpLegRoll
		{
			OFFSET 0.000000 -0.000003 17.179699
			CHANNELS 3 Xrotation Yrotation Zrotation
			JOINT LeftLeg
			{
				OFFSET 0.000000 -0.000003 21.274200
				CHANNELS 3 Xrotation Yrotation Zrotation
				JOINT LeftLegRoll
				{
					OFFSET 0.000000 -0.000003 21.541199
					CHANNELS 3 Xrotation Yrotation Zrotation
					JOINT LeftFoot
					{
						OFFSET 0.000000 -0.000003 17.567902
						CHANNELS 3 Xrotation Yrotation Zrotation
						JOINT LeftToeBase
						{
							OFFSET 0.000000 -0.000002 14.850800
							CHANNELS 3 Xrotation Yrotation Zrotation
							End Site
							{
								OFFSET -0.028210 0.829004 7.192123
							}
						}
					}
				}
			}
		}
	}
}
MOTION
Frames: 11
Frame Time: 0.041667
52.882904 0.033312 63.695702 39.484425 -5.106742 -4.933166 1.405106 0.262307 0.245852 6.811961 0.534812 0.498315 8.457049 0.540747 0.491874 -2.990919 16.763420 3.149306 14.718018 -12.212151 2.209689 -8.082282 -37.941322 -7.788648 130.210002 -33.757414 80.978757 0.000001 0.000000 -0.000003 48.564919 -10.149064 10.520047 0.000024 -0.000001 -3.001083 -5.000259 -7.999907 0.000074 -20.590293 59.865877 24.321911 106.565438 46.548460 -49.812556 0.000001 0.000013 0.000011 62.505691 20.968624 -19.367618 0.000002 -0.000023 3.000221 -5.000181 7.999003 -0.000130 -106.704077 -175.253024 -2.381907 179.999991 -0.000005 -0.482999 103.667081 -2.717583 -3.238267 0.000001 0.000001 1.345481 73.772491 6.499563 2.918693 25.456953 -7.355616 0.000000 -104.182289 169.496526 -1.308161 -0.000006 -0.000004 -0.340537 -80.991946 4.727610 7.194184 -0.000005 -0.000004 -0.662810 80.442696 -7.040597 -0.537512 25.456959 7.345851 -0.000829 
52.879704 0.068922 63.642807 39.417046 -5.098136 -4.934387 1.405806 0.260979 0.247353 6.813371 0.531992 0.501195 8.458464 0.537968 0.494791 -2.962050 16.751247 3.139445 14.708534 -12.187731 2.200214 -8.110892 -37.973270 -7.829823 130.170374 -33.783830 80.808398 -0.000000 -0.000003 -0.000001 48.615798 -10.087236 10.520756 0.000023 0.000000 -3.001090 -5.000254 -7.999912 0.000073 -20.575286 59.854983 24.304286 106.562535 46.579305 -49.753096 0.000002 0.000013 0.000011 62.552559 20.902204 -19.340731 -0.000002 -0.000022 3.000221 -5.000182 7.999005 -0.000126 -106.727238 -175.260414 -2.374194 179.999991 -0.000005 -0.485007 103.593438 -2.696163 -3.226597 0.000001 0.000001 1.348719 73.755026 6.497975 2.924276 25.456952 -7.355615 -0.000000 -104.209549 169.488931 -1.326263 -0.000005 -0.000004 -0.341481 -81.068055 4.696159 7.190505 -0.000002 -0.000004 -0.671336 80.424494 -7.039730 -0.542965 25.456959 7.345852 -0.000829 
52.879204 0.111547 63.592796 39.349041 -5.089055 -4.934026 1.406004 0.259575 0.248671 6.813754 0.529043 0.503400 8.458850 0.535053 0.497033 -2.923363 16.737312 3.127336 14.690680 -12.158328 2.188303 -8.144954 -38.017301 -7.879407 130.117084 -33.817537 80.610070 -0.000000 -0.000000 0.000000 48.677071 -10.019304 10.521614 0.000021 0.000002 -3.001100 -5.000254 -7.999911 0.000077 -20.557981 59.848590 24.283952 106.552973 46.612903 -49.687376 -0.000000 0.000015 0.000008 62.599353 20.833904 -19.313033 -0.000001 -0.000020 3.000218 -5.000181 7.999004 -0.000127 -106.750133 -175.265700 -2.365689 179.999991 -0.000006 -0.486004 103.519085 -2.674680 -3.214922 0.000001 0.000001 1.351961 73.737903 6.496429 2.929849 25.456948 -7.355613 0.000001 -104.236330 169.483221 -1.343536 -0.000004 -0.000005 -0.342521 -81.144246 4.664448 7.186410 -0.000007 -0.000004 -0.679914 80.406134 -7.038797 -0.548525 25.456962 7.345851 -0.000829 
52.877304 0.146579 63.540298 39.280408 -5.079544 -4.932314 1.405767 0.258109 0.249841 6.813275 0.525983 0.505039 8.458379 0.532020 0.498712 -2.876420 16.721587 3.113339 14.666057 -12.125013 2.174493 -8.183657 -38.071474 -7.936167 130.053277 -33.856520 80.389592 0.000002 0.000000 -0.000002 48.747846 -9.945900 10.522509 0.000028 0.000000 -3.001110 -5.000256 -7.999909 0.000070 -20.539058 59.846186 24.261640 106.536519 46.648949 -49.615044 0.000003 0.000013 0.000009 62.645860 20.764332 -19.284740 0.000000 -0.000021 3.000222 -5.000184 7.999004 -0.000128 -106.772618 -175.269143 -2.358028 179.999991 -0.000004 -0.487001 103.443946 -2.653595 -3.204186 0.000001 0.000001 1.355200 73.721223 6.494890 2.935193 25.456950 -7.355614 0.000000 -104.262715 169.479041 -1.361741 -0.000004 -0.000004 -0.343647 -81.220546 4.632489 7.181993 -0.000005 -0.000004 -0.688543 80.387604 -7.037794 -0.554089 25.456959 7.345851 -0.000829 
52.879005 0.176953 63.486801 39.210938 -5.069651 -4.929503 1.405186 0.256589 0.250897 6.812112 0.522832 0.506222 8.457214 0.528894 0.499937 -2.822762 16.704636 3.097846 14.635953 -12.088587 2.159179 -8.226196 -38.134039 -7.998865 129.979456 -33.901996 80.148322 0.000001 0.000001 -0.000003 48.826932 -9.867779 10.523354 0.000028 0.000001 -3.001108 -5.000256 -7.999909 0.000071 -20.518547 59.846835 24.237427 106.516124 46.686409 -49.539833 0.000001 0.000013 0.000011 62.691854 20.694068 -19.256055 0.000006 -0.000021 3.000221 -5.000186 7.999002 -0.000126 -106.794584 -175.271096 -2.350266 179.999991 -0.000005 -0.488996 103.368404 -2.632500 -3.193424 0.000002 0.000001 1.358460 73.704769 6.493384 2.940531 25.456952 -7.355616 0.000001 -104.288376 169.476295 -1.379897 -0.000005 -0.000005 -0.344847 -81.296914 4.600230 7.177256 -0.000006 -0.000004 -0.697231 80.368951 -7.036750 -0.559654 25.456957 7.345852 -0.000829 
52.878403 0.214149 63.436104 39.140648 -5.059437 -4.925812 1.404343 0.255026 0.251874 6.810443 0.519608 0.507062 8.455541 0.525691 0.500820 -2.763945 16.686548 3.081226 14.601850 -12.049938 2.142822 -8.271750 -38.202949 -8.066209 129.899201 -33.951252 79.892852 0.000001 0.000001 -0.000003 48.913280 -9.785454 10.523855 0.000026 0.000002 -3.001121 -5.000254 -7.999909 0.000074 -20.496959 59.850024 24.211895 106.491638 46.725106 -49.461611 -0.000000 0.000013 0.000011 62.737268 20.623693 -19.227109 -0.000001 -0.000023 3.000228 -5.000182 7.999004 -0.000125 -106.815887 -175.271793 -2.341965 179.999991 -0.000005 -0.490006 103.292398 -2.611624 -3.183639 0.000001 0.000001 1.361720 73.688541 6.491906 2.945656 25.456950 -7.355613 0.000001 -104.313402 169.474588 -1.398740 -0.000007 -0.000005 -0.346107 -81.373166 4.567742 7.172095 -0.000004 -0.000004 -0.705981 80.350222 -7.035592 -0.565319 25.456964 7.345851 -0.000830 
52.879101 0.253532 63.388695 39.069440 -5.048942 -4.921495 1.403332 0.253428 0.252805 6.808418 0.516333 0.507670 8.453515 0.522431 0.501472 -2.701520 16.667683 3.063840 14.565011 -12.009864 2.125807 -8.319511 -38.276479 -8.136971 129.813537 -34.004862 79.625601 0.000002 -0.000000 -0.000003 49.005723 -9.699675 10.523939 0.000024 0.000001 -3.001133 -5.000259 -7.999908 0.000071 -20.474573 59.854908 24.185365 106.464857 46.764062 -49.382708 0.000004 0.000014 0.000007 62.781719 20.553781 -19.198113 0.000001 -0.000025 3.000229 -5.000180 7.999004 -0.000126 -106.836419 -175.271533 -2.332961 179.999991 -0.000005 -0.491004 103.216193 -2.590776 -3.173815 0.000001 0.000001 1.364999 73.672347 6.490466 2.950787 25.456948 -7.355615 0.000000 -104.337567 169.473741 -1.417170 -0.000005 -0.000005 -0.347417 -81.449480 4.534946 7.166809 -0.000007 -0.000004 -0.714798 80.331357 -7.034398 -0.571084 25.456965 7.345852 -0.000829 
52.877605 0.288988 63.335304 38.997214 -5.038205 -4.916809 1.402236 0.251805 0.253723 6.806214 0.513025 0.508155 8.451323 0.519137 0.502002 -2.637026 16.648432 3.046087 14.526745 -11.969266 2.108540 -8.368679 -38.352871 -8.209888 129.725032 -34.061433 79.351458 0.000002 -0.000000 -0.000000 49.103237 -9.611068 10.523456 0.000026 0.000002 -3.001130 -5.000256 -7.999910 0.000072 -20.451391 59.860843 24.157952 106.437782 46.802649 -49.305595 -0.000000 0.000015 0.000008 62.825057 20.484972 -19.169254 0.000001 -0.000024 3.000228 -5.000181 7.999003 -0.000125 -106.855946 -175.270686 -2.325209 179.999991 -0.000005 -0.492001 103.139914 -2.569737 -3.162987 0.000001 0.000001 1.368290 73.656152 6.489045 2.955819 25.456953 -7.355613 0.000000 -104.360728 169.473468 -1.435273 -0.000003 -0.000004 -0.348763 -81.525650 4.501876 7.161191 -0.000005 -0.000004 -0.723686 80.312458 -7.033138 -0.576747 25.456964 7.345852 -0.000830 
52.880604 0.322167 63.275101 38.923780 -5.027287 -4.911990 1.401137 0.250169 0.254664 6.804022 0.509700 0.508630 8.449131 0.515829 0.502519 -2.572013 16.629060 3.028312 14.488706 -11.929024 2.091505 -8.418396 -38.430210 -8.283676 129.635242 -34.120937 79.073722 -0.000000 -0.000001 -0.000001 49.204799 -9.520199 10.522195 0.000022 0.000001 -3.001141 -5.000250 -7.999909 0.000071 -20.428000 59.867100 24.130247 106.411267 46.840297 -49.231447 0.000004 0.000012 0.000011 62.866994 20.417785 -19.140664 0.000001 -0.000024 3.000231 -5.000179 7.999004 -0.000128 -106.874333 -175.269484 -2.316269 179.999991 -0.000005 -0.492998 103.063723 -2.548790 -3.152118 0.000001 0.000001 1.371589 73.639862 6.487650 2.960759 25.456952 -7.355616 0.000001 -104.382940 169.473427 -1.454688 -0.000004 -0.000005 -0.350134 -81.601861 4.468434 7.155361 -0.000006 -0.000004 -0.732650 80.293341 -7.031896 -0.582623 25.456965 7.345851 -0.000829 
52.880104 0.358851 63.224804 38.849231 -5.016222 -4.907275 1.400115 0.248531 0.255661 6.801988 0.506380 0.509204 8.447098 0.512526 0.503138 -2.508054 16.609751 3.010875 14.451987 -11.889961 2.075028 -8.467823 -38.506643 -8.357008 129.546627 -34.181948 78.797276 0.000001 -0.000000 -0.000002 49.309120 -9.427885 10.520138 0.000025 0.000002 -3.001151 -5.000254 -7.999911 0.000074 -20.404601 59.873056 24.102573 106.387252 46.876254 -49.162711 0.000003 0.000012 0.000012 62.907470 20.352835 -19.112688 -0.000002 -0.000023 3.000225 -5.000181 7.999005 -0.000126 -106.891552 -175.268173 -2.307992 179.999991 -0.000005 -0.493996 102.987614 -2.527925 -3.142209 0.000001 0.000001 1.374909 73.623381 6.486283 2.965716 25.456950 -7.355616 0.000001 -104.403936 169.473468 -1.473423 -0.000004 -0.000005 -0.351517 -81.677909 4.434692 7.149304 -0.000005 -0.000004 -0.741694 80.274202 -7.030608 -0.588499 25.456960 7.345852 -0.000829 
52.880905 0.400875 63.177605 38.773478 -5.005047 -4.902909 1.399267 0.246898 0.256749 6.800295 0.503084 0.509990 8.445409 0.509246 0.503967 -2.446660 16.590897 2.994152 14.418167 -11.853062 2.059586 -8.516129 -38.580446 -8.428615 129.460649 -34.244352 78.525312 0.000000 -0.000000 -0.000003 49.415298 -9.334707 10.517165 0.000025 0.000002 -3.001162 -5.000256 -7.999909 0.000071 -20.381558 59.877905 24.075314 106.366543 46.909859 -49.100290 -0.000001 0.000012 0.000011 62.946238 20.290677 -19.085444 0.000000 -0.000024 3.000240 -5.000181 7.999000 -0.000129 -106.907378 -175.267135 -2.298218 179.999991 -0.000006 -0.496003 102.911874 -2.506733 -3.131300 0.000001 0.000001 1.378240 73.606777 6.484884 2.970573 25.456950 -7.355613 -0.000001 -104.423641 169.473276 -1.493257 -0.000004 -0.000005 -0.352899 -81.753779 4.400613 7.143019 -0.000004 -0.000004 -0.750822 80.254962 -7.029309 -0.594578 25.456965 7.345851 -0.000830 
